<?xml version="1.0" encoding="UTF-8"?><svg xmlns="http://www.w3.org/2000/svg" xmlns:xlink="http://www.w3.org/1999/xlink" height="233.0" preserveAspectRatio="xMidYMid meet" version="1.1" viewBox="121.0 92.9 206.9 233.0" width="206.9" zoomAndPan="magnify">
 <g id="surface1">
  <g><path d="m189.82 272.29l-8.37-5.77-8.37-5.76s-24.69 2.29-31.77 18.31c-7.07 16.02-0.82 46.91-0.82 46.91s31.1-5.16 43.55-17.48c12.44-12.32 5.78-36.21 5.78-36.21" fill="#fbcb41"/></g>
  <g><path d="m187.92 270.98l-6.47-4.46-6.47-4.45s-19.07 1.77-24.54 14.15c-5.46 12.37-0.63 36.24-0.63 36.24s24.03-3.99 33.64-13.51c9.61-9.51 4.47-27.97 4.47-27.97" fill="#f1982b"/></g>
  <g><path d="m160.65 260.43l33.92 23.36 7.69-11.17-33.92-23.36-7.69 11.17" fill="#88b9d2"/></g>
  <g><path d="m298.57 99.457c-65.29-6.523-138.85 133.34-138.85 133.34l63.75 43.91s104.47-118.57 75.1-177.25" fill="#f2f1f9"/></g>
  <g><path d="m272.62 137.13c9.26 6.38 18.78 11.09 27.68 14.01 5.13-18.59 5.79-36.66-1.73-51.683-16.71-1.668-33.37 5.383-48.9 16.803 5.9 7.27 13.69 14.49 22.95 20.87" fill="#f1487a"/></g>
  <g><path d="m217.99 287.27l-66.18-45.59 9.17-13.31 66.18 45.59-9.17 13.31" fill="#f1487a"/></g>
  <g><path d="m234.29 153.52c-6.45 9.37-4.09 22.19 5.28 28.64 9.36 6.46 22.18 4.09 28.64-5.27 6.45-9.37 4.09-22.19-5.28-28.64s-22.19-4.09-28.64 5.27" fill="#88b9d2"/></g>
  <g><path d="m263.05 173.34c-4.49 6.52-13.41 8.16-19.94 3.67-6.52-4.49-8.16-13.42-3.67-19.94s13.42-8.16 19.94-3.67 8.17 13.42 3.67 19.94" fill="#83d7f6"/></g>
  <g><path d="m226.33 273.38l-64.51-44.44c0.89-1.62 2.06-3.71 3.48-6.19 26.73-2.53 53.41-19.1 76.59-39.2 2.96 1.52 6.16 2.25 9.34 2.25 6.55 0 12.98-3.11 16.98-8.91 4.35-6.32 4.69-14.21 1.58-20.66 4.19-4.57 8.15-9.09 11.84-13.46 6.05 3.43 12.1 6.14 17.89 8.11-7.93 27.9-25.68 57.9-42.03 81.6-0.95-1.26-2.01-2.52-3.18-3.76l-22.77 33.06s0.7 1.22 1.42 3.55c-2.74 3.4-5 6.12-6.63 8.05" fill="#c0bce4"/></g>
  <g><path d="m299.52 150.88c-5.79-1.97-11.84-4.68-17.89-8.11 8.94-10.57 16.32-20.26 21.62-27.56 1.43 10.95-0.16 23.09-3.73 35.67" fill="#c7407a"/></g>
  <g><path d="m223.47 276.71l-63.75-43.91s0.73-1.38 2.1-3.86l64.51 44.44c-1.83 2.16-2.86 3.33-2.86 3.33" fill="#c7407a"/></g>
  <g><path d="m251.23 185.8c-3.18 0-6.38-0.73-9.34-2.25 1.75-1.52 3.48-3.07 5.2-4.62 1.35 0.41 2.75 0.61 4.14 0.61 4.56 0 9.04-2.16 11.82-6.2 2.52-3.66 3.11-8.07 1.99-12.04 1.61-1.69 3.19-3.39 4.75-5.07 3.11 6.45 2.77 14.34-1.58 20.66-4 5.8-10.43 8.91-16.98 8.91" fill="#7098c4"/></g>
  <g><path d="m251.23 179.54c-1.39 0-2.79-0.2-4.14-0.61 6.3-5.74 12.31-11.69 17.95-17.63 1.12 3.97 0.53 8.38-1.99 12.04-2.78 4.04-7.26 6.2-11.82 6.2" fill="#6cafe3"/></g>
  <g><path d="m191.68 188.74l-22.78 33.06s-20.48-3.35-41.88 24.95l-6.01-4.14s24.82-72.79 70.67-53.87" fill="#f1487a"/></g>
  <g><path d="m254.31 228.72l-22.77 33.06s10.42 17.94-8.4 48.02l6.01 4.14s59.17-49.13 25.16-85.22" fill="#f1487a"/></g>
  <g><path d="m227.86 313.05l-4.72-3.25c8.93-14.28 11.28-25.82 11.27-34.01 0-4.56-0.73-8.09-1.45-10.46-0.72-2.33-1.42-3.55-1.42-3.55l13.9-20.18c14.02 30.26-6.99 59.46-17.58 71.45" fill="#c7407a"/></g>
  <g><path d="m127.02 246.75l-6.01-4.14 6.01 4.14c0.02-0.02 0.04-0.04 0.06-0.07-0.02 0.03-0.04 0.05-0.06 0.07m0.12-0.15c0.01-0.02 0.04-0.05 0.05-0.07-0.01 0.02-0.04 0.05-0.05 0.07m0.09-0.12c0.04-0.05 0.06-0.09 0.09-0.12-0.03 0.03-0.05 0.07-0.09 0.12m0.09-0.12c16.4-21.47 32.2-24.44 38.6-24.67-6.4 0.23-22.2 3.2-38.6 24.67" fill="#cac5e8"/></g>
  <g><path d="m165.92 221.69c0.28-0.01 0.54-0.01 0.78-0.01-0.24 0-0.5 0-0.78 0.01" fill="#c0bce4"/></g>
  <g><path d="m121.01 242.61m0.64-1.75c0.02-0.06 0.05-0.12 0.07-0.18-0.02 0.06-0.05 0.12-0.07 0.18" fill="#cac5e8"/></g>
  <g><path d="m168.9 221.8l12.48-18.12-12.48 18.12m-2.11-0.13" fill="#c0bce4"/></g>
  <g><path d="m127.02 246.75l-6.01-4.14c0.01-0.02 0.22-0.65 0.64-1.75 0.02-0.06 0.05-0.12 0.07-0.18 19.7-28.6 46.32-35.42 59.66-37l-12.48 18.12s-0.75-0.13-2.11-0.13c-0.03 0-0.06 0-0.09 0.01-0.24 0-0.5 0-0.78 0.01-6.4 0.23-22.2 3.2-38.6 24.67-0.03 0.03-0.05 0.07-0.09 0.12-0.01 0.01-0.02 0.03-0.04 0.05-0.01 0.02-0.04 0.05-0.05 0.07-0.02 0.03-0.04 0.05-0.06 0.08s-0.04 0.05-0.06 0.07" fill="#c7407a"/></g>
 </g>
</svg>